<svg xmlns="http://www.w3.org/2000/svg" viewBox="0 0 60 60"><defs><style>.cls-1{fill:#fff;}</style></defs><title>Mesa de trabajo 4</title><g id="Capa_4" data-name="Capa 4"><path class="cls-1" d="M30,2A28,28,0,1,1,2,30,28,28,0,0,1,30,2m0-1A29,29,0,1,0,59,30,29,29,0,0,0,30,1Z"/><path class="cls-1" d="M24,21H21v3A3,3,0,0,0,24,21Zm8,0H30a9,9,0,0,1-9,9v2A11,11,0,0,0,32,21Zm-4,0H26a5,5,0,0,1-5,5v2A7,7,0,0,0,28,21Zm0,18h2a9,9,0,0,1,9-9V28A11,11,0,0,0,28,39Zm8,0h3V36A3,3,0,0,0,36,39Zm-4,0h2a5,5,0,0,1,5-5V32A7,7,0,0,0,32,39Z"/></g></svg>