<svg xmlns="http://www.w3.org/2000/svg" viewBox="0 0 60 60"><defs><style>.cls-1{fill:#fff;}</style></defs><title>Mesa de trabajo 5</title><g id="Capa_5" data-name="Capa 5"><path class="cls-1" d="M30,2A28,28,0,1,1,2,30,28,28,0,0,1,30,2m0-1A29,29,0,1,0,59,30,29,29,0,0,0,30,1Z"/><circle class="cls-1" cx="27" cy="27.5" r="4"/><path class="cls-1" d="M27,33.5c-2.67,0-8,1.34-8,4v2H35v-2C35,34.84,29.67,33.5,27,33.5Zm7.76-9.64-1.68,1.69a3.32,3.32,0,0,1,0,3.89l1.68,1.69A5.12,5.12,0,0,0,34.76,23.86Zm3.31-3.36-1.63,1.63a8,8,0,0,1,0,10.74l1.63,1.63A9.83,9.83,0,0,0,38.07,20.5Z"/></g></svg>