<?xml version="1.0" standalone="no"?>
<!DOCTYPE svg PUBLIC "-//W3C//DTD SVG 20010904//EN"
 "http://www.w3.org/TR/2001/REC-SVG-20010904/DTD/svg10.dtd">
<svg version="1.0" xmlns="http://www.w3.org/2000/svg"
 width="534.000000pt" height="534.000000pt" viewBox="0 0 534.000000 534.000000"
 preserveAspectRatio="xMidYMid meet">
<metadata>
Created by potrace 1.11, written by Peter Selinger 2001-2013
</metadata>
<g transform="translate(0.000000,534.000000) scale(0.100000,-0.100000)"
fill="#000000" stroke="none">
<path d="M2538 5235 c-2 -2 -43 -6 -93 -10 -49 -4 -128 -13 -175 -21 -47 -8
-98 -17 -115 -20 -45 -7 -210 -53 -295 -81 -139 -46 -407 -168 -490 -223 -14
-9 -53 -36 -88 -58 -34 -23 -65 -42 -67 -42 -3 0 -13 -6 -22 -14 -10 -8 -63
-50 -118 -94 -372 -296 -661 -705 -819 -1161 -41 -118 -82 -268 -96 -356 -6
-33 -12 -71 -14 -85 -20 -120 -28 -231 -29 -375 -1 -122 10 -332 17 -344 2 -3
7 -33 10 -66 4 -33 11 -76 16 -95 5 -19 11 -48 14 -65 30 -173 153 -504 248
-668 15 -26 28 -50 28 -53 0 -12 139 -218 209 -309 42 -55 130 -154 196 -220
251 -251 489 -414 826 -563 145 -65 440 -149 582 -168 18 -2 43 -6 57 -9 134
-27 564 -27 713 1 12 2 38 6 57 8 149 21 377 84 555 156 l30 12 -35 11 c-37
13 -85 73 -94 118 -10 51 -57 144 -65 131 -9 -15 -6 -49 9 -127 19 -96 19
-108 5 -141 -22 -53 -90 -66 -154 -28 -45 27 -51 50 -35 135 8 41 14 81 14 89
0 8 -33 -21 -72 -64 -67 -71 -77 -79 -118 -83 -55 -6 -92 19 -110 73 -21 63
-1 89 130 169 25 15 36 24 25 20 -89 -33 -93 -34 -128 -24 -63 17 -82 68 -51
134 14 30 68 68 91 64 4 -1 42 -1 83 0 59 1 71 4 56 12 -15 10 -128 12 -346 7
-38 -1 -121 12 -139 22 -70 37 -95 139 -106 430 -8 224 -17 303 -38 331 -20
27 -67 45 -172 68 -152 33 -266 74 -420 151 -195 98 -330 196 -504 368 -51 50
-97 92 -102 92 -18 0 -42 -54 -63 -143 -34 -143 -59 -177 -126 -177 -55 0 -98
27 -200 125 -105 100 -103 99 -204 96 -60 -2 -77 -11 -122 -61 -39 -43 -75
-59 -119 -53 -37 5 -53 20 -64 59 -14 48 8 87 63 112 25 12 50 22 56 22 12 0
13 30 1 49 -6 9 -19 12 -42 7 -105 -20 -114 -19 -145 7 -24 21 -29 33 -29 69
0 62 23 83 89 82 28 0 73 -5 101 -11 27 -6 51 -10 52 -9 2 2 -20 27 -47 57
-53 57 -71 99 -63 143 11 54 91 76 141 39 15 -11 38 -47 52 -81 14 -33 29 -64
34 -69 13 -11 -1 54 -19 90 -39 79 9 172 83 161 41 -7 83 -34 93 -62 8 -19 7
-47 -1 -95 -7 -38 -10 -70 -7 -73 2 -3 7 13 10 34 13 80 98 112 152 57 35 -34
34 -93 -1 -126 -81 -76 -70 -185 29 -276 l45 -43 6 28 c7 34 13 74 22 137 3
28 8 53 11 57 11 19 15 228 4 259 -23 70 -84 112 -226 154 -237 71 -415 242
-550 528 -80 169 -99 257 -71 331 47 123 179 150 441 91 246 -55 414 -137 524
-254 66 -70 99 -136 144 -283 24 -80 55 -164 68 -188 37 -67 60 -78 169 -85
122 -7 167 -19 210 -57 55 -49 111 -69 193 -70 129 -2 192 29 235 115 32 64
30 80 -9 72 -88 -20 -144 2 -155 60 -14 77 38 130 118 119 23 -4 48 -9 53 -14
18 -13 45 -19 45 -10 0 5 -22 21 -49 36 -60 32 -75 63 -56 118 14 39 36 62 70
71 52 15 98 -14 131 -82 l23 -48 1 70 c2 121 15 149 76 161 75 14 144 -30 144
-92 0 -19 5 -34 10 -34 6 0 10 4 10 9 0 10 20 18 60 26 53 10 114 -51 112
-111 -1 -19 2 -33 6 -30 4 2 22 -2 40 -10 42 -17 58 -56 66 -158 9 -114 20
-120 30 -16 12 128 26 163 72 180 47 18 118 -9 149 -56 29 -44 16 -97 -49
-199 -31 -49 -56 -93 -56 -97 0 -4 8 -8 19 -8 17 0 43 17 123 82 18 15 48 29
66 33 91 16 169 -109 118 -188 -20 -29 -69 -44 -176 -52 -41 -3 -90 -11 -109
-17 l-35 -11 26 -22 c15 -13 46 -25 76 -29 27 -3 65 -17 83 -29 66 -44 43
-148 -36 -163 -44 -8 -61 -1 -124 45 -73 55 -124 67 -220 52 -42 -6 -94 -14
-115 -17 -22 -3 -69 -15 -104 -26 l-63 -19 38 -47 c20 -26 79 -90 129 -142 51
-52 112 -117 136 -143 80 -90 174 -141 358 -196 150 -45 313 -57 445 -32 33 6
72 13 86 16 55 10 186 58 260 94 276 137 495 385 592 673 49 144 60 211 61
373 1 188 -4 226 -45 360 -125 404 -432 697 -858 820 -115 33 -140 38 -256 52
-64 8 -360 10 -484 2 -66 -4 -75 -2 -87 17 -13 19 -12 24 6 47 12 15 24 26 28
25 7 -2 88 10 142 20 66 12 471 9 570 -4 435 -58 769 -252 990 -575 159 -232
244 -511 244 -799 0 -165 -15 -265 -68 -470 -25 -93 -115 -281 -192 -396 -282
-426 -794 -659 -1574 -720 -82 -6 -149 -24 -151 -41 -5 -39 -7 -74 -13 -178
-3 -66 -9 -159 -12 -207 l-6 -87 49 -14 c26 -7 100 -15 163 -16 120 -2 220
-15 255 -33 11 -6 46 -32 79 -57 65 -51 39 -47 258 -39 68 3 80 0 99 -18 32
-33 36 -99 7 -154 -31 -60 -62 -68 -142 -34 -110 46 -193 61 -214 39 -4 -4 34
-46 85 -94 51 -47 96 -97 101 -111 12 -31 -1 -85 -28 -122 l-21 -29 38 16 c63
26 224 114 298 163 481 318 832 757 1022 1281 47 132 88 281 117 436 29 153
43 573 23 715 -4 30 -10 73 -13 95 -20 165 -92 424 -169 610 -35 87 -125 269
-152 310 -238 365 -369 513 -666 751 -127 102 -381 248 -562 323 -11 5 -31 13
-45 19 -74 32 -303 102 -383 117 -12 3 -56 11 -97 19 -41 9 -97 18 -125 21
-27 3 -70 8 -95 11 -45 5 -378 13 -382 9z"/>
<path d="M2800 3210 c-13 -8 -12 -10 3 -10 9 0 17 5 17 10 0 12 -1 12 -20 0z"/>
<path d="M2589 2963 c-264 -276 -291 -296 -409 -308 -86 -9 -93 -13 -75 -48
20 -39 101 -123 160 -166 54 -40 145 -95 145 -88 0 3 -14 34 -31 70 -36 77
-44 159 -21 206 37 76 118 110 307 126 178 15 222 23 229 41 7 18 -26 39 -83
54 -24 6 -58 25 -74 41 -27 27 -29 35 -25 80 5 46 3 51 -19 60 -13 5 -26 9
-27 9 -2 0 -36 -35 -77 -77z"/>
</g>
</svg>
